<?xml version="1.0" standalone="no"?>
<svg viewBox="0 0 200 200" xmlns="http://www.w3.org/2000/svg">
  <path fill="#0F62FE" d="M40.3,-71.5C48.5,-64.9,49.1,-46.8,55.2,-33C61.3,-19.1,72.8,-9.6,78,3C83.1,15.5,81.9,31,74.3,42.3C66.7,53.5,52.8,60.4,39.4,64.4C25.9,68.3,13,69.3,1,67.6C-11,65.9,-22,61.6,-35.2,57.5C-48.4,53.4,-63.8,49.5,-66.9,40C-70,30.5,-60.9,15.2,-58.8,1.2C-56.6,-12.7,-61.4,-25.5,-59.3,-36.8C-57.2,-48.2,-48.2,-58.1,-37.2,-63C-26.2,-68,-13.1,-68,1.4,-70.5C16,-73,32,-78,40.3,-71.5Z" transform="translate(100 100)" />
</svg>
